<svg xmlns="http://www.w3.org/2000/svg" xmlns:xlink="http://www.w3.org/1999/xlink" x="0" y="0" width="185" height="191" style="
        width:185px;
        height:191px;
        background: transparent;
        fill: none;
">
        
        
        <svg xmlns="http://www.w3.org/2000/svg" class="role-diagram-draw-area"><g class="shapes-region" style="stroke: black; fill: none;"><g class="grouped-shape"><g class="arrow-line"><path class="connection real" stroke-dasharray="" d="  M138.69,61.29 L119.41,95.09" style="stroke: rgb(0, 0, 0); stroke-width: 2px; fill: none; fill-opacity: 1;"/></g><g class="arrow-line"><path class="connection real" stroke-dasharray="" d="  M129.44,35.64 L138.69,61.29" style="stroke: rgb(0, 0, 0); stroke-width: 2px; fill: none; fill-opacity: 1;"/></g><g class="arrow-line"><path class="connection real" stroke-dasharray="" d="  M76.5,43.25 L129.44,35.64" style="stroke: rgb(0, 0, 0); stroke-width: 2px; fill: none; fill-opacity: 1;"/></g><g class="arrow-line"><path class="connection real" stroke-dasharray="" d="  M76.5,43.25 L138.69,61.29" style="stroke: rgb(0, 0, 0); stroke-width: 2px; fill: none; fill-opacity: 1;"/></g><g class="composite-shape"><path class="real" d=" M110.41,95.09 C110.41,90.12 114.44,86.09 119.41,86.09 C124.38,86.09 128.41,90.12 128.41,95.09 C128.41,100.06 124.38,104.09 119.41,104.09 C114.44,104.09 110.41,100.06 110.41,95.09 Z" style="stroke-width: 2px; stroke: rgb(0, 0, 0); fill: rgb(74, 144, 226); fill-opacity: 1;"/></g><g class="grouped-shape"><g class="composite-shape"><path class="real" d=" M77.81,152.97 C72.91,161.46 62.05,164.37 53.56,159.47 L53.56,159.47 C45.07,154.56 42.16,143.71 47.07,135.22 L91.28,58.64 C91.99,57.41 93.56,56.99 94.79,57.7 L121.08,72.87 C122.31,73.58 122.73,75.16 122.02,76.39 Z" style="stroke-width: 3px; stroke: rgb(0, 0, 0); fill: rgb(74, 144, 226); fill-opacity: 1;"/></g><g class="arrow-line"><path class="connection real" stroke-dasharray="" d="  M91.28,58.64 L122.02,76.39" style="stroke: rgb(0, 0, 0); stroke-width: 3px; fill: none; fill-opacity: 1;"/></g></g><g class="shape"><polygon class="real" points=" 119.36,77 112.25,89.54 109.36,87.57 104.5,87 99.64,88.14 95.36,90.14 90.58,93.88 83.36,92.71 79.42,87.79 77.75,86.29 92.17,61.38" style="stroke: rgb(255, 255, 255); stroke-opacity: 1; stroke-width: 1px; fill: rgb(255, 255, 255); fill-opacity: 1;"/></g><g class="arrow-line"><path class="connection real" stroke-dasharray="" d="  M78,85.88 C93.33,108.29 93.5,78.54 112.5,89.13" style="stroke: rgb(255, 255, 255); stroke-opacity: 1; stroke-width: 2px; fill: none; fill-opacity: 1;"/></g><g class="composite-shape"><path class="real" d=" M61.83,145.23 C61.83,143.84 62.96,142.71 64.35,142.71 C65.75,142.71 66.88,143.84 66.88,145.23 C66.88,146.62 65.75,147.75 64.35,147.75 C62.96,147.75 61.83,146.62 61.83,145.23 Z" style="stroke-width: 1px; stroke: rgb(132, 189, 255); stroke-opacity: 1; fill: rgb(132, 189, 255); fill-opacity: 1;"/></g><g class="composite-shape"><path class="real" d=" M60,128.27 C60,126.21 61.67,124.54 63.73,124.54 C65.79,124.54 67.46,126.21 67.46,128.27 C67.46,130.33 65.79,132 63.73,132 C61.67,132 60,130.33 60,128.27 Z" style="stroke-width: 1px; stroke: rgb(132, 189, 255); stroke-opacity: 1; fill: rgb(132, 189, 255); fill-opacity: 1;"/></g><g class="composite-shape"><path class="real" d=" M78.5,129.77 C78.5,128.91 79.2,128.21 80.06,128.21 C80.93,128.21 81.63,128.91 81.63,129.77 C81.63,130.63 80.93,131.33 80.06,131.33 C79.2,131.33 78.5,130.63 78.5,129.77 Z" style="stroke-width: 1px; stroke: rgb(132, 189, 255); stroke-opacity: 1; fill: rgb(132, 189, 255); fill-opacity: 1;"/></g><g class="composite-shape"><path class="real" d=" M73.25,115.27 C73.25,114.04 74.25,113.04 75.48,113.04 C76.71,113.04 77.71,114.04 77.71,115.27 C77.71,116.5 76.71,117.5 75.48,117.5 C74.25,117.5 73.25,116.5 73.25,115.27 Z" style="stroke-width: 1px; stroke: rgb(132, 189, 255); stroke-opacity: 1; fill: rgb(132, 189, 255); fill-opacity: 1;"/></g><g class="composite-shape"><path class="real" d=" M86.5,109.02 C86.5,107.05 88.09,105.46 90.06,105.46 C92.03,105.46 93.63,107.05 93.63,109.02 C93.63,110.99 92.03,112.58 90.06,112.58 C88.09,112.58 86.5,110.99 86.5,109.02 Z" style="stroke-width: 1px; stroke: rgb(132, 189, 255); stroke-opacity: 1; fill: rgb(132, 189, 255); fill-opacity: 1;"/></g><g class="composite-shape"><path class="real" d=" M77.92,98.56 C77.92,98.14 78.26,97.79 78.69,97.79 C79.11,97.79 79.46,98.14 79.46,98.56 C79.46,98.99 79.11,99.33 78.69,99.33 C78.26,99.33 77.92,98.99 77.92,98.56 Z" style="stroke-width: 1px; stroke: rgb(132, 189, 255); stroke-opacity: 1; fill: rgb(132, 189, 255); fill-opacity: 1;"/></g><g class="composite-shape"><path class="real" d=" M67.5,43.25 C67.5,38.28 71.53,34.25 76.5,34.25 C81.47,34.25 85.5,38.28 85.5,43.25 C85.5,48.22 81.47,52.25 76.5,52.25 C71.53,52.25 67.5,48.22 67.5,43.25 Z" style="stroke-width: 2px; stroke: rgb(0, 0, 0); fill: rgb(74, 144, 226); fill-opacity: 1;"/></g><g class="composite-shape"><path class="real" d=" M131.68,61.29 C131.68,57.41 134.82,54.27 138.69,54.27 C142.57,54.27 145.71,57.41 145.71,61.29 C145.71,65.16 142.57,68.3 138.69,68.3 C134.82,68.3 131.68,65.16 131.68,61.29 Z" style="stroke-width: 2px; stroke: rgb(0, 0, 0); fill: rgb(74, 144, 226); fill-opacity: 1;"/></g><g class="composite-shape"><path class="real" d=" M122.8,35.64 C122.8,31.97 125.77,29 129.44,29 C133.1,29 136.07,31.97 136.07,35.64 C136.07,39.3 133.1,42.27 129.44,42.27 C125.77,42.27 122.8,39.3 122.8,35.64 Z" style="stroke-width: 2px; stroke: rgb(0, 0, 0); fill: rgb(74, 144, 226); fill-opacity: 1;"/></g><g class="composite-shape"><path class="real" d=" M85.5,85.02 C85.5,83.05 87.09,81.46 89.06,81.46 C91.03,81.46 92.63,83.05 92.63,85.02 C92.63,86.99 91.03,88.58 89.06,88.58 C87.09,88.58 85.5,86.99 85.5,85.02 Z" style="stroke-width: 1px; stroke: rgb(74, 144, 226); stroke-opacity: 1; fill: rgb(74, 144, 226); fill-opacity: 1;"/></g><g class="composite-shape"><path class="real" d=" M103.58,80.77 C103.58,79.54 104.58,78.54 105.81,78.54 C107.04,78.54 108.04,79.54 108.04,80.77 C108.04,82 107.04,83 105.81,83 C104.58,83 103.58,82 103.58,80.77 Z" style="stroke-width: 1px; stroke: rgb(74, 144, 226); stroke-opacity: 1; fill: rgb(74, 144, 226); fill-opacity: 1;"/></g><g class="composite-shape"><path class="real" d=" M95.67,71.94 C95.67,70.94 96.48,70.13 97.48,70.13 C98.48,70.13 99.29,70.94 99.29,71.94 C99.29,72.94 98.48,73.75 97.48,73.75 C96.48,73.75 95.67,72.94 95.67,71.94 Z" style="stroke-width: 1px; stroke: rgb(74, 144, 226); stroke-opacity: 1; fill: rgb(74, 144, 226); fill-opacity: 1;"/></g></g><g/></g><g/><g/><g/></svg>
        <svg xmlns="http://www.w3.org/2000/svg" xmlns:xlink="http://www.w3.org/1999/xlink" width="183" height="189" style="width:183px;height:189px;font-family:Asana-Math, Asana;background:transparent;"></svg>
</svg>
